#!OML:ASF E:\Mandelcareful walks\Project 1\Capture day 1\Session 1\Subject1.ASF
:FULLY-SPECIFIED
:DEGREES
296
root -18.6757 13.2864 -1.75144 -332.663 81.6945 -349.358
lowerback 28.6998 -0.0566556 -6.4183
upperback 6.42147 -1.59127 -2.12215
thorax -8.46991 -0.412163 1.83833
lowerneck -21.199 10.0603 6.68063
upperneck 4.69538 13.9087 -16.858
head 6.61276 5.79071 -4.73589
rclavicle 4.45278e-014 -5.56597e-015
rhumerus 47.1828 -3.2452 -43.3177
rradius 137.745
rwrist 13.6687
rhand -44.6037 -55.7236
rfingers 7.12502
rthumb -17.4023 -84.9646
lclavicle 4.45278e-014 -5.56597e-015
lhumerus -31.3477 -15.537 76.045
lradius 49.9724
lwrist 23.123
lhand -21.6567 -8.0704
lfingers 7.12502
lthumb 4.74029 21.8566
rfemur -54.6652 -25.3248 1.35965
rtibia 77.0681
rfoot -25.0389 1.35745
rtoes -21.4805
lfemur -66.9074 22.3094 -21.176
ltibia 86.9533
lfoot -31.2347 6.41499
ltoes -8.42961
297
root -18.6775 13.286 -1.77438 -332.88 80.6565 -349.508
lowerback 28.8824 -0.242963 -6.36944
upperback 6.36687 -1.83602 -2.0647
thorax -8.60403 -0.525841 1.96257
lowerneck -21.2174 10.136 6.74884
upperneck 4.76801 13.9959 -16.8456
head 6.65243 5.82725 -4.72785
rclavicle 2.8625e-014 2.46493e-014
rhumerus 46.8523 -2.62892 -42.8924
rradius 138.105
rwrist 14.3299
rhand -44.179 -58.3938
rfingers 7.12502
rthumb -16.9935 -87.6705
lclavicle 2.8625e-014 2.46493e-014
lhumerus -30.9238 -14.6157 75.2524
lradius 49.2104
lwrist 23.7788
lhand -22.3351 -7.74579
lfingers 7.12502
lthumb 4.08517 22.1948
rfemur -55.1145 -24.8497 1.16057
rtibia 76.9107
rfoot -24.7548 1.55417
rtoes -20.995
lfemur -66.6861 22.7129 -21.4962
ltibia 87.0392
lfoot -31.4335 7.05142
ltoes -8.70174
298
root -18.6765 13.297 -1.79523 -333.774 79.6572 -350.231
lowerback 29.1134 -0.384852 -6.19005
upperback 6.36413 -1.98224 -2.00925
thorax -8.71575 -0.595716 1.97713
lowerneck -21.1596 10.166 6.77523
upperneck 4.75298 14.0294 -16.8663
head 6.64618 5.84443 -4.73514
rclavicle -2.38542e-015 -2.22639e-014
rhumerus 46.8869 -1.90945 -42.5222
rradius 138.128
rwrist 15.1929
rhand -43.7137 -61.0638
rfingers 7.12502
rthumb -16.5456 90.3784
lclavicle -2.38542e-015 -2.22639e-014
lhumerus -30.3493 -13.6672 74.4758
lradius 48.4963
lwrist 24.1789
lhand -23.0208 -7.66927
lfingers 7.12502
lthumb 3.42301 22.283
rfemur -55.3926 -24.3879 1.0841
rtibia 76.7164
rfoot -24.4402 1.96174
rtoes -20.2958
lfemur -66.286 23.1821 -21.6145
ltibia 87.0847
lfoot -31.6767 7.6226
ltoes -9.44946
299
root -18.6688 13.3019 -1.8094 -334.713 78.6967 -351.013
lowerback 29.5012 -0.454666 -6.25396
upperback 6.17581 -2.12143 -1.74047
thorax -9.09675 -0.648827 2.37522
lowerneck -20.9776 10.2121 6.54686
upperneck 4.84682 14.1742 -16.8938
head 6.65168 5.90917 -4.69016
rclavicle -3.10104e-014 1.74931e-014
rhumerus 47.1155 -0.835904 -42.0847
rradius 138.181
rwrist 15.9614
rhand -42.9134 -63.2418
rfingers 7.12502
rthumb -15.775 92.619
lclavicle -3.10104e-014 1.74931e-014
lhumerus -30.2667 -12.3816 74.066
lradius 48.111
lwrist 24.2408
lhand -23.5983 -7.44841
lfingers 7.12502
lthumb 2.86527 22.5121
rfemur -55.5849 -23.907 1.01218
rtibia 76.5568
rfoot -24.2913 2.49761
rtoes -19.5155
lfemur -65.9019 23.7556 -21.6641
ltibia 87.1746
lfoot -31.9768 8.05754
ltoes -10.3981
300
root -18.6596 13.2933 -1.81348 -335.332 77.7749 -351.569
lowerback 29.4393 -0.490696 -6.40093
upperback 6.12175 -2.19694 -1.49468
thorax -9.10396 -0.683715 2.76389
lowerneck -20.7137 10.2845 6.46545
upperneck 4.82013 14.3134 -17.005
head 6.62295 5.97979 -4.69901
rclavicle 1.82882e-014 -8.74653e-015
rhumerus 47.2535 -0.0948298 -41.7409
rradius 138.332
rwrist 16.7008
rhand -42.0188 -65.1847
rfingers 7.12502
rthumb -14.9133 94.6278
lclavicle 1.82882e-014 -8.74653e-015
lhumerus -30.2052 -11.0382 73.6444
lradius 48.1831
lwrist 24.0935
lhand -24.1869 -7.19765
lfingers 7.12502
lthumb 2.29684 22.7697
rfemur -55.9156 -23.4568 0.94726
rtibia 76.496
rfoot -24.2819 2.85997
rtoes -19.1682
lfemur -65.6758 24.4097 -21.7697
ltibia 87.3261
lfoot -32.2422 8.35152
ltoes -10.917
301
root -18.6537 13.2828 -1.81596 -335.672 77.0219 -351.842
lowerback 29.2099 -0.579039 -6.27343
upperback 6.23443 -2.24313 -1.43948
thorax -8.86205 -0.719799 2.76274
lowerneck -20.6526 10.3416 6.59618
upperneck 4.78295 14.3641 -17.0891
head 6.62474 6.00525 -4.74017
rclavicle 1.35174e-014 0
rhumerus 47.3909 0.112548 -41.456
rradius 138.217
rwrist 17.225
rhand -42.0367 -67.6511
rfingers 7.12502
rthumb -14.9305 97.093
lclavicle 1.35174e-014 0
lhumerus -29.7922 -9.99938 73.0501
lradius 48.4468
lwrist 23.9646
lhand -25.0625 -6.91396
lfingers 7.12502
lthumb 1.45123 23.0609
rfemur -56.2692 -23.223 0.938402
rtibia 76.4789
rfoot -24.3285 3.02157
rtoes -19.3822
lfemur -65.4951 24.8736 -21.8552
ltibia 87.4795
lfoot -32.5938 8.49883
ltoes -10.6178
302
root -18.6481 13.2796 -1.81666 -335.763 76.3972 -351.752
lowerback 29.0447 -0.733715 -5.91592
upperback 6.4384 -2.31886 -1.59659
thorax -8.56729 -0.773766 2.40065
lowerneck -20.7092 10.3542 6.78174
upperneck 4.705 14.3083 -17.0336
head 6.6092 5.98678 -4.75905
rclavicle 1.74931e-014 -1.19271e-014
rhumerus 47.4649 -0.456313 -41.4207
rradius 138.285
rwrist 17.1172
rhand -41.7837 -69.9067
rfingers 7.12502
rthumb -14.6868 99.3665
lclavicle 1.74931e-014 -1.19271e-014
lhumerus -29.1208 -9.59174 72.3
lradius 48.8012
lwrist 24.3039
lhand -25.8527 -6.85615
lfingers 7.12502
lthumb 0.687995 23.1225
rfemur -56.4033 -23.0645 0.849992
rtibia 76.4958
rfoot -24.4636 3.21757
rtoes -19.4634
lfemur -65.1695 25.1992 -21.9229
ltibia 87.543
lfoot -33.0194 8.59528
ltoes -9.77075
303
root -18.6415 13.2793 -1.80988 -335.95 75.8278 -351.727
lowerback 29.5436 -0.663875 -6.0897
upperback 6.20768 -2.31537 -1.31264
thorax -9.05357 -0.751341 2.83505
lowerneck -20.7721 10.343 6.49328
upperneck 5.03885 14.4025 -16.952
head 6.70928 6.00856 -4.66909
rclavicle 9.54166e-015 -5.56597e-015
rhumerus 47.3615 0.211641 -41.0119
rradius 138.766
rwrist 17.5314
rhand -40.4293 -71.2141
rfingers 7.12502
rthumb -13.3816 100.764
lclavicle 9.54166e-015 -5.56597e-015
lhumerus -29.2854 -9.0878 72.369
lradius 49.5096
lwrist 24.651
lhand -26.6349 -7.35425
lfingers 7.12502
lthumb -0.0674595 22.6255
rfemur -56.4325 -22.8744 0.783111
rtibia 76.5402
rfoot -24.5842 3.5101
rtoes -19.1268
lfemur -64.8037 25.5923 -21.9626
ltibia 87.514
lfoot -33.1777 8.85223
ltoes -9.47891
304
root -18.6363 13.2736 -1.7989 -335.999 75.3321 -351.651
lowerback 29.6759 -0.64164 -6.04592
upperback 6.15309 -2.28106 -1.20435
thorax -9.1812 -0.732384 2.92469
lowerneck -20.9937 10.3025 6.35845
upperneck 5.27862 14.3924 -16.8308
head 6.79907 5.98435 -4.60278
rclavicle 1.31198e-014 2.22639e-014
rhumerus 46.9679 1.01002 -40.8152
rradius 139.627
rwrist 18.0554
rhand -39.5647 -72.0092
rfingers 7.12502
rthumb -12.5481 101.612
lclavicle 1.31198e-014 2.22639e-014
lhumerus -29.2022 -8.84763 72.2968
lradius 50.5625
lwrist 25.1135
lhand -27.5898 -8.09133
lfingers 7.12502
lthumb -0.989763 21.8861
rfemur -56.5833 -22.7742 0.78198
rtibia 76.6092
rfoot -24.5992 3.66778
rtoes -18.9905
lfemur -64.5805 25.974 -22.0324
ltibia 87.4724
lfoot -33.1132 9.17369
ltoes -9.87282
